<?xml version="1.0" encoding="us-ascii" standalone="no"?><svg xmlns="http://www.w3.org/2000/svg" xmlns:xlink="http://www.w3.org/1999/xlink" contentStyleType="text/css" height="3386px" preserveAspectRatio="none" style="width:1523px;height:3386px;background:#FFFFFF;" version="1.1" viewBox="0 0 1523 3386" width="1523px" zoomAndPan="magnify"><defs/><g><!--cluster POSYANTEKDES IKHLAS RAMAKU--><g id="cluster_POSYANTEKDES IKHLAS RAMAKU"><rect fill="none" height="2294" rx="2.5" ry="2.5" style="stroke:#181818;stroke-width:1.0;" width="1236" x="281" y="561.6"/><text fill="#000000" font-family="sans-serif" font-size="14" font-weight="bold" lengthAdjust="spacing" textLength="257" x="770.5" y="576.5951">POSYANTEKDES IKHLAS RAMAKU</text></g><!--cluster Machines--><g id="cluster_Machines"><rect fill="none" height="218" rx="2.5" ry="2.5" style="stroke:#181818;stroke-width:1.0;" width="341" x="722" y="604.6"/><text fill="#000000" font-family="sans-serif" font-size="14" font-weight="bold" lengthAdjust="spacing" textLength="46" x="869.5" y="619.5951">Mesin</text></g><!--cluster Production--><g id="cluster_Production"><rect fill="none" height="786" rx="2.5" ry="2.5" style="stroke:#181818;stroke-width:1.0;" width="252" x="766.5" y="846.6"/><text fill="#000000" font-family="sans-serif" font-size="14" font-weight="bold" lengthAdjust="spacing" textLength="204" x="790.5" y="861.5951">Produksi dan Pengelolaan</text></g><!--cluster Management--><g id="cluster_Management"><rect fill="none" height="303" rx="2.5" ry="2.5" style="stroke:#181818;stroke-width:1.0;" width="322" x="305" y="2206.6"/><text fill="#000000" font-family="sans-serif" font-size="14" font-weight="bold" lengthAdjust="spacing" textLength="221" x="355.5" y="2221.5951">Pengelolaan dan Pembinaan</text></g><!--cluster Administration--><g id="cluster_Administration"><rect fill="none" height="270" rx="2.5" ry="2.5" style="stroke:#181818;stroke-width:1.0;" width="319" x="733" y="1657.6"/><text fill="#000000" font-family="sans-serif" font-size="14" font-weight="bold" lengthAdjust="spacing" textLength="97" x="844" y="1672.5951">Administrasi</text></g><!--cluster Tools--><g id="cluster_Tools"><rect fill="none" height="257" rx="2.5" ry="2.5" style="stroke:#181818;stroke-width:1.0;" width="317" x="734" y="1951.6"/><text fill="#000000" font-family="sans-serif" font-size="14" font-weight="bold" lengthAdjust="spacing" textLength="204" x="790.5" y="1966.5951">Akses Alat dan Kerjasama</text></g><!--cluster Optimization--><g id="cluster_Optimization"><rect fill="none" height="827" rx="2.5" ry="2.5" style="stroke:#181818;stroke-width:1.0;" width="336" x="1157" y="675.6"/><text fill="#000000" font-family="sans-serif" font-size="14" font-weight="bold" lengthAdjust="spacing" textLength="94" x="1278" y="690.5951">Optimalisasi</text></g><g id="elem_UC1"><ellipse cx="892.5781" cy="673.4156" fill="#F1F1F1" rx="154.5781" ry="33.3156" style="stroke:#181818;stroke-width:0.5;"/><text fill="#000000" font-family="sans-serif" font-size="14" lengthAdjust="spacing" textLength="280" x="752.5781" y="676.2623">Menggunakan Mesin Pengupas Kentang</text></g><g id="elem_UC2"><ellipse cx="892.3682" cy="774.4736" fill="#F1F1F1" rx="147.3682" ry="31.8736" style="stroke:#181818;stroke-width:0.5;"/><text fill="#000000" font-family="sans-serif" font-size="14" lengthAdjust="spacing" textLength="265" x="759.8682" y="777.3203">Menggunakan Mesin Pengiris Kentang</text></g><g id="elem_UC3"><ellipse cx="892.5935" cy="1453.4187" fill="#F1F1F1" rx="109.5935" ry="24.3187" style="stroke:#181818;stroke-width:0.5;"/><text fill="#000000" font-family="sans-serif" font-size="14" lengthAdjust="spacing" textLength="185" x="800.0935" y="1456.2654">Produksi Emping Singkong</text></g><g id="elem_UC4"><ellipse cx="892.5612" cy="899.8122" fill="#F1F1F1" rx="76.5612" ry="17.7122" style="stroke:#181818;stroke-width:0.5;"/><text fill="#000000" font-family="sans-serif" font-size="14" lengthAdjust="spacing" textLength="110" x="834.5612" y="903.5598">Beternak Puyuh</text></g><g id="elem_UC5"><ellipse cx="892.3822" cy="1211.6764" fill="#F1F1F1" rx="100.8822" ry="22.5764" style="stroke:#181818;stroke-width:0.5;"/><text fill="#000000" font-family="sans-serif" font-size="14" lengthAdjust="spacing" textLength="166" x="809.3822" y="1214.5231">Mengelola Drip Irrigation</text></g><g id="elem_UC6"><ellipse cx="892.5656" cy="1052.7131" fill="#F1F1F1" rx="83.5656" ry="19.1131" style="stroke:#181818;stroke-width:0.5;"/><text fill="#000000" font-family="sans-serif" font-size="14" lengthAdjust="spacing" textLength="127" x="828.6623" y="1055.6974">Beternak Kambing</text></g><g id="elem_UC7"><ellipse cx="892.7481" cy="975.4496" fill="#F1F1F1" rx="102.2481" ry="22.8496" style="stroke:#181818;stroke-width:0.5;"/><text fill="#000000" font-family="sans-serif" font-size="14" lengthAdjust="spacing" textLength="169" x="808.2481" y="978.2963">Mengelola Kebun Durian</text></g><g id="elem_UC8"><ellipse cx="892.5329" cy="1130.4066" fill="#F1F1F1" rx="104.5329" ry="23.3066" style="stroke:#181818;stroke-width:0.5;"/><text fill="#000000" font-family="sans-serif" font-size="14" lengthAdjust="spacing" textLength="174" x="805.5329" y="1133.2533">Mengelola Kebun Anggur</text></g><g id="elem_UC9"><ellipse cx="892.3049" cy="1529.661" fill="#F1F1F1" rx="70.8049" ry="16.561" style="stroke:#181818;stroke-width:0.5;"/><text fill="#000000" font-family="sans-serif" font-size="14" lengthAdjust="spacing" textLength="95" x="841.8049" y="1533.4085">Beternak Ikan</text></g><g id="elem_UC10"><ellipse cx="892.5557" cy="1293.5111" fill="#F1F1F1" rx="110.0557" ry="24.4111" style="stroke:#181818;stroke-width:0.5;"/><text fill="#000000" font-family="sans-serif" font-size="14" lengthAdjust="spacing" textLength="186" x="799.5557" y="1296.3578">Mengolah Makanan Ringan</text></g><g id="elem_UC11"><ellipse cx="892.2754" cy="1598.6551" fill="#F1F1F1" rx="75.7754" ry="17.5551" style="stroke:#181818;stroke-width:0.5;"/><text fill="#000000" font-family="sans-serif" font-size="14" lengthAdjust="spacing" textLength="108" x="835.2754" y="1602.4026">Produksi Pupuk</text></g><g id="elem_UC12"><ellipse cx="892.4431" cy="1373.7886" fill="#F1F1F1" rx="91.4431" ry="20.6886" style="stroke:#181818;stroke-width:0.5;"/><text fill="#000000" font-family="sans-serif" font-size="14" lengthAdjust="spacing" textLength="145" x="819.9431" y="1376.6353">Pengelolaan Sampah</text></g><g id="elem_UC13"><ellipse cx="466.1669" cy="2462.6334" fill="#F1F1F1" rx="140.6669" ry="30.5334" style="stroke:#181818;stroke-width:0.5;"/><text fill="#000000" font-family="sans-serif" font-size="14" lengthAdjust="spacing" textLength="251" x="340.6669" y="2465.4801">Memantau dan Melaporkan Kegiatan</text></g><g id="elem_UC14"><ellipse cx="465.8356" cy="2368.5671" fill="#F1F1F1" rx="127.8356" ry="27.9671" style="stroke:#181818;stroke-width:0.5;"/><text fill="#000000" font-family="sans-serif" font-size="14" lengthAdjust="spacing" textLength="224" x="353.8356" y="2371.4138">Membina dan Memberi Pelatihan</text></g><g id="elem_UC15"><ellipse cx="465.9716" cy="2273.4943" fill="#F1F1F1" rx="144.9716" ry="31.3943" style="stroke:#181818;stroke-width:0.5;"/><text fill="#000000" font-family="sans-serif" font-size="14" lengthAdjust="spacing" textLength="260" x="335.9716" y="2276.341">Menyediakan Sumber Daya dan Hibah</text></g><g id="elem_UC16"><ellipse cx="892.4911" cy="1887.4982" fill="#F1F1F1" rx="104.9911" ry="23.3982" style="stroke:#181818;stroke-width:0.5;"/><text fill="#000000" font-family="sans-serif" font-size="14" lengthAdjust="spacing" textLength="175" x="804.9911" y="1890.3449">Mencatat Data Pengguna</text></g><g id="elem_UC17"><ellipse cx="892.4263" cy="1809.3853" fill="#F1F1F1" rx="84.4263" ry="19.2853" style="stroke:#181818;stroke-width:0.5;"/><text fill="#000000" font-family="sans-serif" font-size="14" lengthAdjust="spacing" textLength="129" x="827.805" y="1812.2739">Mengelola Fasilitas</text></g><g id="elem_UC18"><ellipse cx="892.5353" cy="1723.7071" fill="#F1F1F1" rx="143.5353" ry="31.1071" style="stroke:#181818;stroke-width:0.5;"/><text fill="#000000" font-family="sans-serif" font-size="14" lengthAdjust="spacing" textLength="257" x="764.0353" y="1726.5537">Melakukan Riset dan Pengembangan</text></g><g id="elem_UC19"><ellipse cx="892.3073" cy="2078.4615" fill="#F1F1F1" rx="72.3073" ry="16.8615" style="stroke:#181818;stroke-width:0.5;"/><text fill="#000000" font-family="sans-serif" font-size="14" lengthAdjust="spacing" textLength="99" x="839.8073" y="2082.209">Meminjam Alat</text></g><g id="elem_UC20"><ellipse cx="892.3518" cy="2006.6704" fill="#F1F1F1" rx="88.3518" ry="20.0704" style="stroke:#181818;stroke-width:0.5;"/><text fill="#000000" font-family="sans-serif" font-size="14" lengthAdjust="spacing" textLength="138" x="823.3518" y="2009.517">Mengembalikan Alat</text></g><g id="elem_UC21"><ellipse cx="892.5786" cy="2161.5157" fill="#F1F1F1" rx="142.5786" ry="30.9157" style="stroke:#181818;stroke-width:0.5;"/><text fill="#000000" font-family="sans-serif" font-size="14" lengthAdjust="spacing" textLength="255" x="765.0786" y="2164.3624">Melakukan Observasi atau Kerjasama</text></g><g id="elem_UC22"><ellipse cx="1325.2487" cy="1453.5497" fill="#F1F1F1" rx="150.2487" ry="32.4497" style="stroke:#181818;stroke-width:0.5;"/><text fill="#000000" font-family="sans-serif" font-size="14" lengthAdjust="spacing" textLength="271" x="1189.7487" y="1456.3964">Optimalisasi Produksi Emping Singkong</text></g><g id="elem_UC23"><ellipse cx="1325.1716" cy="743.4343" fill="#F1F1F1" rx="152.1716" ry="32.8343" style="stroke:#181818;stroke-width:0.5;"/><text fill="#000000" font-family="sans-serif" font-size="14" lengthAdjust="spacing" textLength="275" x="1187.6716" y="746.281">Mengolah Produk Olahan Burung Puyuh</text></g><g id="elem_UC24"><ellipse cx="1324.8276" cy="910.3655" fill="#F1F1F1" rx="106.8276" ry="23.7655" style="stroke:#181818;stroke-width:0.5;"/><text fill="#000000" font-family="sans-serif" font-size="14" lengthAdjust="spacing" textLength="179" x="1235.3276" y="913.2122">Mengelola Mesin Digester</text></g><g id="elem_UC25"><ellipse cx="1325.1163" cy="1083.8233" fill="#F1F1F1" rx="94.1163" ry="21.2233" style="stroke:#181818;stroke-width:0.5;"/><text fill="#000000" font-family="sans-serif" font-size="14" lengthAdjust="spacing" textLength="151" x="1249.6163" y="1086.6699">Mengelola Komposter</text></g><g id="elem_UC26"><ellipse cx="1324.9263" cy="831.3853" fill="#F1F1F1" rx="84.4263" ry="19.2853" style="stroke:#181818;stroke-width:0.5;"/><text fill="#000000" font-family="sans-serif" font-size="14" lengthAdjust="spacing" textLength="129" x="1260.305" y="834.2739">Mengelola Kascing</text></g><g id="elem_UC27"><ellipse cx="1325.2348" cy="1355.847" fill="#F1F1F1" rx="139.2348" ry="30.247" style="stroke:#181818;stroke-width:0.5;"/><text fill="#000000" font-family="sans-serif" font-size="14" lengthAdjust="spacing" textLength="248" x="1201.2348" y="1358.6936">Mengelola Drip Irrigation dengan IoT</text></g><g id="elem_UC28"><ellipse cx="1325.1751" cy="998.635" fill="#F1F1F1" rx="130.6751" ry="28.535" style="stroke:#181818;stroke-width:0.5;"/><text fill="#000000" font-family="sans-serif" font-size="14" lengthAdjust="spacing" textLength="230" x="1210.1751" y="1001.4817">Mengelola Hibah Ternak Kambing</text></g><g id="elem_UC29"><ellipse cx="1325.1802" cy="1166.436" fill="#F1F1F1" rx="122.1802" ry="26.836" style="stroke:#181818;stroke-width:0.5;"/><text fill="#000000" font-family="sans-serif" font-size="14" lengthAdjust="spacing" textLength="212" x="1219.1802" y="1169.2827">Mengelola Kebun Durian Hibah</text></g><g id="elem_UC30"><ellipse cx="1325.1894" cy="1259.5379" fill="#F1F1F1" rx="140.1894" ry="30.4379" style="stroke:#181818;stroke-width:0.5;"/><text fill="#000000" font-family="sans-serif" font-size="14" lengthAdjust="spacing" textLength="250" x="1200.1894" y="1262.3846">Mengelola Kebun Anggur Pembelian</text></g><!--entity user--><g id="elem_user"><ellipse cx="466" cy="367.1" fill="#F1F1F1" rx="8" ry="8" style="stroke:#181818;stroke-width:0.5;"/><path d="M466,375.1 L466,402.1 M453,383.1 L479,383.1 M466,402.1 L453,417.1 M466,402.1 L479,417.1 " fill="none" style="stroke:#181818;stroke-width:0.5;"/><text fill="#000000" font-family="sans-serif" font-size="14" lengthAdjust="spacing" textLength="131" x="400.5" y="431.5951">Pengguna Layanan</text></g><!--entity admin--><g id="elem_admin"><ellipse cx="120" cy="1932.1" fill="#F1F1F1" rx="8" ry="8" style="stroke:#181818;stroke-width:0.5;"/><path d="M120,1940.1 L120,1967.1 M107,1948.1 L133,1948.1 M120,1967.1 L107,1982.1 M120,1967.1 L133,1982.1 " fill="none" style="stroke:#181818;stroke-width:0.5;"/><text fill="#000000" font-family="sans-serif" font-size="14" lengthAdjust="spacing" textLength="144" x="48" y="1996.5951">Pengelola Posyantek</text></g><!--entity mentor--><g id="elem_mentor"><ellipse cx="120" cy="2462.1" fill="#F1F1F1" rx="8" ry="8" style="stroke:#181818;stroke-width:0.5;"/><path d="M120,2470.1 L120,2497.1 M107,2478.1 L133,2478.1 M120,2497.1 L107,2512.1 M120,2497.1 L133,2512.1 " fill="none" style="stroke:#181818;stroke-width:0.5;"/><text fill="#000000" font-family="sans-serif" font-size="14" lengthAdjust="spacing" textLength="60" x="90" y="2526.5951">Pembina</text></g><!--entity institution--><g id="elem_institution"><ellipse cx="120" cy="2228.1" fill="#F1F1F1" rx="8" ry="8" style="stroke:#181818;stroke-width:0.5;"/><path d="M120,2236.1 L120,2263.1 M107,2244.1 L133,2244.1 M120,2263.1 L107,2278.1 M120,2263.1 L133,2278.1 " fill="none" style="stroke:#181818;stroke-width:0.5;"/><text fill="#000000" font-family="sans-serif" font-size="14" lengthAdjust="spacing" textLength="202" x="19" y="2292.5951">Universitas / Lembaga Binaan</text></g><!--entity citizen--><g id="elem_citizen"><ellipse cx="466" cy="478.1" fill="#F1F1F1" rx="8" ry="8" style="stroke:#181818;stroke-width:0.5;"/><path d="M466,486.1 L466,513.1 M453,494.1 L479,494.1 M466,513.1 L453,528.1 M466,513.1 L479,528.1 " fill="none" style="stroke:#181818;stroke-width:0.5;"/><text fill="#000000" font-family="sans-serif" font-size="14" lengthAdjust="spacing" textLength="43" x="444.5" y="542.5951">Warga</text></g><!--entity chairperson--><g id="elem_chairperson"><ellipse cx="120" cy="2339.1" fill="#F1F1F1" rx="8" ry="8" style="stroke:#181818;stroke-width:0.5;"/><path d="M120,2347.1 L120,2374.1 M107,2355.1 L133,2355.1 M120,2374.1 L107,2389.1 M120,2374.1 L133,2389.1 " fill="none" style="stroke:#181818;stroke-width:0.5;"/><text fill="#000000" font-family="sans-serif" font-size="14" lengthAdjust="spacing" textLength="89" x="75.5" y="2403.5951">Ketua Umum</text></g><!--entity cooperativeHead--><g id="elem_cooperativeHead"><ellipse cx="120" cy="2053.1" fill="#F1F1F1" rx="8" ry="8" style="stroke:#181818;stroke-width:0.5;"/><path d="M120,2061.1 L120,2088.1 M107,2069.1 L133,2069.1 M120,2088.1 L107,2103.1 M120,2088.1 L133,2103.1 " fill="none" style="stroke:#181818;stroke-width:0.5;"/><text fill="#000000" font-family="sans-serif" font-size="14" lengthAdjust="spacing" textLength="228" x="6" y="2117.5951">Ketua Koperasi Mitra Usaha Desa</text></g><!--entity secretary--><g id="elem_secretary"><ellipse cx="120" cy="2874.1" fill="#F1F1F1" rx="8" ry="8" style="stroke:#181818;stroke-width:0.5;"/><path d="M120,2882.1 L120,2909.1 M107,2890.1 L133,2890.1 M120,2909.1 L107,2924.1 M120,2909.1 L133,2924.1 " fill="none" style="stroke:#181818;stroke-width:0.5;"/><text fill="#000000" font-family="sans-serif" font-size="14" lengthAdjust="spacing" textLength="69" x="85.5" y="2938.5951">Sekretaris</text></g><!--entity PRandIT--><g id="elem_PRandIT"><ellipse cx="120" cy="3016.1" fill="#F1F1F1" rx="8" ry="8" style="stroke:#181818;stroke-width:0.5;"/><path d="M120,3024.1 L120,3051.1 M107,3032.1 L133,3032.1 M120,3051.1 L107,3066.1 M120,3051.1 L133,3066.1 " fill="none" style="stroke:#181818;stroke-width:0.5;"/><text fill="#000000" font-family="sans-serif" font-size="14" lengthAdjust="spacing" textLength="202" x="19" y="3080.5951">Humas &amp; Teknologi Informasi</text></g><!--entity fishery--><g id="elem_fishery"><ellipse cx="120" cy="2682.1" fill="#F1F1F1" rx="8" ry="8" style="stroke:#181818;stroke-width:0.5;"/><path d="M120,2690.1 L120,2717.1 M107,2698.1 L133,2698.1 M120,2717.1 L107,2732.1 M120,2717.1 L133,2732.1 " fill="none" style="stroke:#181818;stroke-width:0.5;"/><text fill="#000000" font-family="sans-serif" font-size="14" lengthAdjust="spacing" textLength="106" x="67" y="2746.5951">Kerja Perikanan</text></g><!--entity infrastructure--><g id="elem_infrastructure"><ellipse cx="466" cy="256.1" fill="#F1F1F1" rx="8" ry="8" style="stroke:#181818;stroke-width:0.5;"/><path d="M466,264.1 L466,291.1 M453,272.1 L479,272.1 M466,291.1 L453,306.1 M466,291.1 L479,306.1 " fill="none" style="stroke:#181818;stroke-width:0.5;"/><text fill="#000000" font-family="sans-serif" font-size="14" lengthAdjust="spacing" textLength="149" x="391.5" y="320.5951">Sarana dan Prasarana</text></g><!--entity agriculture--><g id="elem_agriculture"><ellipse cx="466" cy="3178.1" fill="#F1F1F1" rx="8" ry="8" style="stroke:#181818;stroke-width:0.5;"/><path d="M466,3186.1 L466,3213.1 M453,3194.1 L479,3194.1 M466,3213.1 L453,3228.1 M466,3213.1 L479,3228.1 " fill="none" style="stroke:#181818;stroke-width:0.5;"/><text fill="#000000" font-family="sans-serif" font-size="14" lengthAdjust="spacing" textLength="238" x="347" y="3242.5951">Kerja Pertanian dan Pupuk Organik</text></g><!--entity livestock--><g id="elem_livestock"><ellipse cx="466" cy="145.1" fill="#F1F1F1" rx="8" ry="8" style="stroke:#181818;stroke-width:0.5;"/><path d="M466,153.1 L466,180.1 M453,161.1 L479,161.1 M466,180.1 L453,195.1 M466,180.1 L479,195.1 " fill="none" style="stroke:#181818;stroke-width:0.5;"/><text fill="#000000" font-family="sans-serif" font-size="14" lengthAdjust="spacing" textLength="117" x="407.5" y="209.5951">Kerja Peternakan</text></g><!--link user to UC1--><g id="link_user_UC1"><path d="M531.75,369.06 C582.33,352.06 652.74,338.65 706,368.6 C811.34,427.82 862.1713,568.0238 881.2113,634.2138 " fill="none" id="user-to-UC1" style="stroke:#181818;stroke-width:1.0;"/><polygon fill="#181818" points="882.87,639.98,884.2261,630.225,881.4878,635.1749,876.5379,632.4365,882.87,639.98" style="stroke:#181818;stroke-width:1.0;"/></g><!--link user to UC2--><g id="link_user_UC2"><path d="M531.78,406.85 C591.49,420.37 675.35,450.81 706,517.6 C715.6,538.51 699.75,706.52 714,724.6 C726.58,740.56 738.296,749.41 757.136,757.11 " fill="none" id="user-to-UC2" style="stroke:#181818;stroke-width:1.0;"/><polygon fill="#181818" points="762.69,759.38,755.8723,752.2724,758.0616,757.4884,752.8456,759.6777,762.69,759.38" style="stroke:#181818;stroke-width:1.0;"/></g><!--link user to UC3--><g id="link_user_UC3"><path d="M531.89,400.07 C568.46,405.74 611.41,419.42 635,451.6 C647.35,468.44 634.98,1184.31 643,1203.6 C658.33,1240.45 689.85,1231.09 706,1267.6 C712.48,1282.25 703.71,1399.31 714,1411.6 C731.48,1432.48 751.4072,1442.7057 777.9172,1448.8957 " fill="none" id="user-to-UC3" style="stroke:#181818;stroke-width:1.0;"/><polygon fill="#181818" points="783.76,1450.26,775.9053,1444.3184,778.891,1449.1231,774.0862,1452.1088,783.76,1450.26" style="stroke:#181818;stroke-width:1.0;"/></g><!--link user to UC4--><g id="link_user_UC4"><path d="M531.91,402.09 C567.32,408.51 609.09,422.27 635,451.6 C647.29,465.51 637.15,474.97 643,492.6 C663.35,553.91 690.38,560.91 706,623.6 C711.35,645.07 701.49,804.34 714,822.6 C740.02,860.55 783.1935,878.5075 823.1335,888.3275 " fill="none" id="user-to-UC4" style="stroke:#181818;stroke-width:1.0;"/><polygon fill="#181818" points="828.96,889.76,821.1753,883.7269,824.1046,888.5662,819.2653,891.4955,828.96,889.76" style="stroke:#181818;stroke-width:1.0;"/></g><!--link user to UC5--><g id="link_user_UC5"><path d="M531.83,400.11 C568.38,405.8 611.33,419.48 635,451.6 C651.68,474.23 633.08,931.29 643,957.6 C658.24,998.01 689.93,991.5 706,1031.6 C711.8,1046.06 703.93,1159.71 714,1171.6 C733.2,1194.25 756.3299,1204.5697 785.3899,1209.9397 " fill="none" id="user-to-UC5" style="stroke:#181818;stroke-width:1.0;"/><polygon fill="#181818" points="791.29,1211.03,783.1667,1205.4612,786.3732,1210.1214,781.713,1213.328,791.29,1211.03" style="stroke:#181818;stroke-width:1.0;"/></g><!--link user to UC6--><g id="link_user_UC6"><path d="M531.69,400.22 C568.18,405.94 611.13,419.62 635,451.6 C644.48,464.29 638.8,721.32 643,736.6 C658.24,792.04 690.2,794.31 706,849.6 C711.07,867.35 702.01,1001.55 714,1015.6 C737.4,1043.01 769.4021,1052.7851 804.2321,1055.7851 " fill="none" id="user-to-UC6" style="stroke:#181818;stroke-width:1.0;"/><polygon fill="#181818" points="810.21,1056.3,801.5865,1051.5424,805.2284,1055.8709,800.8999,1059.5129,810.21,1056.3" style="stroke:#181818;stroke-width:1.0;"/></g><!--link user to UC7--><g id="link_user_UC7"><path d="M531.54,400.32 C567.99,406.09 610.94,419.77 635,451.6 C648.28,469.16 635.31,628.96 643,649.6 C658.69,691.68 690.35,686.5 706,728.6 C713.98,750.07 699.4,916.95 714,934.6 C732.85,957.38 755.7179,967.8572 784.6379,973.4172 " fill="none" id="user-to-UC7" style="stroke:#181818;stroke-width:1.0;"/><polygon fill="#181818" points="790.53,974.55,782.447,968.9228,785.6199,973.606,780.9367,976.7789,790.53,974.55" style="stroke:#181818;stroke-width:1.0;"/></g><!--link user to UC8--><g id="link_user_UC8"><path d="M531.78,400.14 C568.32,405.84 611.27,419.52 635,451.6 C648.42,469.73 636.12,836.11 643,857.6 C658.12,904.79 689.99,902.7 706,949.6 C711,964.24 704.06,1076.74 714,1088.6 C732.52,1110.67 754.4279,1121.1279 782.5479,1127.0279 " fill="none" id="user-to-UC8" style="stroke:#181818;stroke-width:1.0;"/><polygon fill="#181818" points="788.42,1128.26,780.4332,1122.4971,783.5266,1127.2333,778.7904,1130.3267,788.42,1128.26" style="stroke:#181818;stroke-width:1.0;"/></g><!--link user to UC9--><g id="link_user_UC9"><path d="M531.9,400.06 C568.47,405.73 611.43,419.41 635,451.6 C648.52,470.06 637.22,1253.45 643,1275.6 C657.73,1331.98 689.41,1334.73 706,1390.6 C712.66,1413.03 698.42,1478.14 714,1495.6 C741.37,1526.26 781.2109,1534.3333 819.4509,1535.0133 " fill="none" id="user-to-UC9" style="stroke:#181818;stroke-width:1.0;"/><polygon fill="#181818" points="825.45,1535.12,816.5225,1530.9606,820.4508,1535.0311,816.3803,1538.9594,825.45,1535.12" style="stroke:#181818;stroke-width:1.0;"/></g><!--link user to UC10--><g id="link_user_UC10"><path d="M531.86,400.09 C568.41,405.77 611.37,419.45 635,451.6 C644.68,464.76 637.25,1024.3 643,1039.6 C658.19,1080.03 689.91,1073.51 706,1113.6 C711.72,1127.85 704.13,1239.83 714,1251.6 C731.4,1272.34 751.14,1282.5337 777.49,1288.7437 " fill="none" id="user-to-UC10" style="stroke:#181818;stroke-width:1.0;"/><polygon fill="#181818" points="783.33,1290.12,775.4875,1284.1622,778.4633,1288.9731,773.6524,1291.9488,783.33,1290.12" style="stroke:#181818;stroke-width:1.0;"/></g><!--link user to UC11--><g id="link_user_UC11"><path d="M531.52,399.96 C568.2,405.58 611.4,419.24 635,451.6 C645.89,466.53 629.89,1769.56 643,1782.6 C662.86,1802.33 685.47,1801.63 706,1782.6 C723.32,1766.53 700.35,1695.88 714,1676.6 C740.84,1638.68 784.5036,1620.453 824.4236,1610.343 " fill="none" id="user-to-UC11" style="stroke:#181818;stroke-width:1.0;"/><polygon fill="#181818" points="830.24,1608.87,820.5334,1607.202,825.393,1610.0975,822.4975,1614.9571,830.24,1608.87" style="stroke:#181818;stroke-width:1.0;"/></g><!--link user to UC12--><g id="link_user_UC12"><path d="M531.87,400.08 C568.44,405.75 611.39,419.43 635,451.6 C646.01,466.6 636.47,1104.17 643,1121.6 C658.16,1162.04 689.93,1155.5 706,1195.6 C711.8,1210.06 703.86,1323.76 714,1335.6 C735.43,1360.6 762.9898,1370.7585 795.1498,1374.9285 " fill="none" id="user-to-UC12" style="stroke:#181818;stroke-width:1.0;"/><polygon fill="#181818" points="801.1,1375.7,792.6891,1370.5759,796.1415,1375.0571,791.6604,1378.5095,801.1,1375.7" style="stroke:#181818;stroke-width:1.0;"/></g><!--link admin to UC13--><g id="link_admin_UC13"><path d="M192.08,1988.93 C208.32,1998.45 223.79,2010.83 234,2026.6 C245.74,2044.73 258.9,2397.22 273,2413.6 C288.93,2432.11 305.1028,2442.2381 328.3828,2449.9281 " fill="none" id="admin-to-UC13" style="stroke:#181818;stroke-width:1.0;"/><polygon fill="#181818" points="334.08,2451.81,326.7888,2445.1889,329.3323,2450.2417,324.2795,2452.7852,334.08,2451.81" style="stroke:#181818;stroke-width:1.0;"/></g><!--link admin to UC16--><g id="link_admin_UC16"><path d="M192.11,1991.09 C310.52,2035.05 550.43,2101.56 706,1992.6 C714.52,1986.63 706.98,1978.27 714,1970.6 C743.05,1938.85 781.0618,1920.1775 817.8218,1907.4175 " fill="none" id="admin-to-UC16" style="stroke:#181818;stroke-width:1.0;"/><polygon fill="#181818" points="823.49,1905.45,813.676,1904.6225,818.7665,1907.0896,816.2993,1912.1801,823.49,1905.45" style="stroke:#181818;stroke-width:1.0;"/></g><!--link admin to UC17--><g id="link_admin_UC17"><path d="M192,1971.66 C331.46,1989.7 633.84,2019.62 706,1951.6 C723.03,1935.54 698.56,1864.18 714,1846.6 C737.47,1819.87 768.8361,1810.0895 803.2161,1806.8695 " fill="none" id="admin-to-UC17" style="stroke:#181818;stroke-width:1.0;"/><polygon fill="#181818" points="809.19,1806.31,799.8562,1803.1667,804.2118,1806.7763,800.6022,1811.1318,809.19,1806.31" style="stroke:#181818;stroke-width:1.0;"/></g><!--link UC1 to UC16--><g id="link_UC1_UC16"><path d="M759.83,690.76 C742.1,698.51 725.95,709.39 714,724.6 C592.33,879.44 682.89,1413.2 679,1610.1 C676.9,1716.33 641.45,1768.96 714,1846.6 C733.32,1867.27 754.9116,1877.2802 782.5216,1883.1602 " fill="none" id="UC1-to-UC16" style="stroke:#181818;stroke-width:1.0;stroke-dasharray:7.0,7.0;"/><polygon fill="#181818" points="788.39,1884.41,780.4206,1878.6231,783.4997,1883.3685,778.7542,1886.4476,788.39,1884.41" style="stroke:#181818;stroke-width:1.0;"/><text fill="#000000" font-family="sans-serif" font-size="13" lengthAdjust="spacing" textLength="61" x="644" y="1623.1669">&#171;include&#187;</text></g><!--link UC2 to UC16--><g id="link_UC2_UC16"><path d="M801.08,799.82 C768.06,813.71 734.02,834.63 714,865.6 C624.69,1003.76 667.17,1441 679,1605.1 C686.8,1713.27 640.51,1766.83 714,1846.6 C733.17,1867.41 754.722,1877.4482 782.332,1883.3382 " fill="none" id="UC2-to-UC16" style="stroke:#181818;stroke-width:1.0;stroke-dasharray:7.0,7.0;"/><polygon fill="#181818" points="788.2,1884.59,780.2326,1878.8003,783.31,1883.5468,778.5635,1886.6243,788.2,1884.59" style="stroke:#181818;stroke-width:1.0;"/><text fill="#000000" font-family="sans-serif" font-size="13" lengthAdjust="spacing" textLength="61" x="644" y="1601.1669">&#171;include&#187;</text></g><!--link UC3 to UC16--><g id="link_UC3_UC16"><path d="M784.25,1457.9 C757.91,1464.14 732.14,1475.51 714,1495.6 C629.59,1589.04 672.95,1756.95 679,1781.1 C687.02,1813.11 687.78,1826.54 714,1846.6 C736.6,1863.88 759.3551,1872.8241 787.0151,1878.7941 " fill="none" id="UC3-to-UC16" style="stroke:#181818;stroke-width:1.0;stroke-dasharray:7.0,7.0;"/><polygon fill="#181818" points="792.88,1880.06,784.9265,1874.2512,787.9925,1879.0051,783.2387,1882.0712,792.88,1880.06" style="stroke:#181818;stroke-width:1.0;"/><text fill="#000000" font-family="sans-serif" font-size="13" lengthAdjust="spacing" textLength="61" x="644" y="1777.1669">&#171;include&#187;</text></g><!--link UC4 to UC16--><g id="link_UC4_UC16"><path d="M819.43,894.23 C782.21,895.77 739.53,904.9 714,934.6 C596.89,1070.78 682.89,1562.52 679,1742.1 C677.94,1791.06 676.79,1814.74 714,1846.6 C735.38,1864.9 757.4476,1874.1622 784.8376,1880.1322 " fill="none" id="UC4-to-UC16" style="stroke:#181818;stroke-width:1.0;stroke-dasharray:7.0,7.0;"/><polygon fill="#181818" points="790.7,1881.41,782.7583,1875.5851,785.8147,1880.3452,781.0546,1883.4016,790.7,1881.41" style="stroke:#181818;stroke-width:1.0;"/><text fill="#000000" font-family="sans-serif" font-size="13" lengthAdjust="spacing" textLength="61" x="644" y="1755.1669">&#171;include&#187;</text></g><!--link UC5 to UC16--><g id="link_UC5_UC16"><path d="M792.33,1214.68 C763.84,1220.27 734.9,1231.18 714,1251.6 C662.7,1301.7 676.14,1337.44 679,1409.1 C686.78,1604.01 586.49,1698.97 714,1846.6 C732.6,1868.13 754.1383,1878.3861 781.9283,1884.2261 " fill="none" id="UC5-to-UC16" style="stroke:#181818;stroke-width:1.0;stroke-dasharray:7.0,7.0;"/><polygon fill="#181818" points="787.8,1885.46,779.815,1879.6946,782.9069,1884.4317,778.1698,1887.5236,787.8,1885.46" style="stroke:#181818;stroke-width:1.0;"/><text fill="#000000" font-family="sans-serif" font-size="13" lengthAdjust="spacing" textLength="61" x="644" y="1405.1669">&#171;include&#187;</text></g><!--link UC6 to UC16--><g id="link_UC6_UC16"><path d="M810.48,1048.95 C775.61,1052.01 737.63,1062.33 714,1089.6 C631.68,1184.57 682.89,1528.47 679,1654.1 C676.31,1741.01 653.41,1784.22 714,1846.6 C733.61,1866.78 755.1249,1876.6447 782.5649,1882.5647 " fill="none" id="UC6-to-UC16" style="stroke:#181818;stroke-width:1.0;stroke-dasharray:7.0,7.0;"/><polygon fill="#181818" points="788.43,1883.83,780.476,1878.0219,783.5425,1882.7755,778.7888,1885.842,788.43,1883.83" style="stroke:#181818;stroke-width:1.0;"/><text fill="#000000" font-family="sans-serif" font-size="13" lengthAdjust="spacing" textLength="61" x="644" y="1667.1669">&#171;include&#187;</text></g><!--link UC7 to UC16--><g id="link_UC7_UC16"><path d="M790.33,976.29 C761.58,981.76 733,993.19 714,1015.6 C622.79,1123.11 666.65,1508.64 679,1649.1 C686.81,1737.9 652.57,1781.99 714,1846.6 C733.39,1866.99 754.8449,1876.9147 782.2849,1882.8347 " fill="none" id="UC7-to-UC16" style="stroke:#181818;stroke-width:1.0;stroke-dasharray:7.0,7.0;"/><polygon fill="#181818" points="788.15,1884.1,780.196,1878.2919,783.2625,1883.0455,778.5088,1886.112,788.15,1884.1" style="stroke:#181818;stroke-width:1.0;"/><text fill="#000000" font-family="sans-serif" font-size="13" lengthAdjust="spacing" textLength="61" x="644" y="1645.1669">&#171;include&#187;</text></g><!--link UC8 to UC16--><g id="link_UC8_UC16"><path d="M788.66,1133.5 C760.89,1139.35 733.28,1150.66 714,1171.6 C640.24,1251.7 686.8,1305.48 679,1414.1 C672.1,1510.27 650.82,1773.76 714,1846.6 C732.65,1868.09 754.1983,1878.3361 781.9883,1884.1761 " fill="none" id="UC8-to-UC16" style="stroke:#181818;stroke-width:1.0;stroke-dasharray:7.0,7.0;"/><polygon fill="#181818" points="787.86,1885.41,779.875,1879.6446,782.9669,1884.3817,778.2298,1887.4736,787.86,1885.41" style="stroke:#181818;stroke-width:1.0;"/><text fill="#000000" font-family="sans-serif" font-size="13" lengthAdjust="spacing" textLength="61" x="644" y="1427.1669">&#171;include&#187;</text></g><!--link UC9 to UC16--><g id="link_UC9_UC16"><path d="M823.25,1525.6 C786.24,1527.27 742.55,1535.94 714,1563.6 C665.19,1610.87 668.7,1671.07 679,1737.1 C686.87,1787.58 676.39,1812.01 714,1846.6 C734.71,1865.64 756.5766,1875.1472 783.9866,1881.0972 " fill="none" id="UC9-to-UC16" style="stroke:#181818;stroke-width:1.0;stroke-dasharray:7.0,7.0;"/><polygon fill="#181818" points="789.85,1882.37,781.9034,1876.5518,784.9638,1881.3093,780.2063,1884.3698,789.85,1882.37" style="stroke:#181818;stroke-width:1.0;"/><text fill="#000000" font-family="sans-serif" font-size="13" lengthAdjust="spacing" textLength="61" x="644" y="1733.1669">&#171;include&#187;</text></g><!--link UC10 to UC16--><g id="link_UC10_UC16"><path d="M784.84,1299 C758.66,1305.26 732.82,1316.37 714,1335.6 C661.72,1389.01 686.82,1425.76 679,1500.1 C662.81,1654.03 611.31,1730.78 714,1846.6 C732.77,1867.77 754.2011,1877.9327 781.8211,1883.8027 " fill="none" id="UC10-to-UC16" style="stroke:#181818;stroke-width:1.0;stroke-dasharray:7.0,7.0;"/><polygon fill="#181818" points="787.69,1885.05,779.7182,1879.2664,782.7992,1884.0106,778.0551,1887.0917,787.69,1885.05" style="stroke:#181818;stroke-width:1.0;"/><text fill="#000000" font-family="sans-serif" font-size="13" lengthAdjust="spacing" textLength="61" x="644" y="1513.1669">&#171;include&#187;</text></g><!--link UC11 to UC16--><g id="link_UC11_UC16"><path d="M828.4,1608.11 C777.1,1619.6 708.94,1644.56 679,1698.1 C645.9,1757.28 665.24,1799.48 714,1846.6 C734.24,1866.15 755.9459,1875.8101 783.3759,1881.7501 " fill="none" id="UC11-to-UC16" style="stroke:#181818;stroke-width:1.0;stroke-dasharray:7.0,7.0;"/><polygon fill="#181818" points="789.24,1883.02,781.2905,1877.2058,784.3533,1881.9618,779.5973,1885.0246,789.24,1883.02" style="stroke:#181818;stroke-width:1.0;"/><text fill="#000000" font-family="sans-serif" font-size="13" lengthAdjust="spacing" textLength="61" x="644" y="1711.1669">&#171;include&#187;</text></g><!--link UC12 to UC16--><g id="link_UC12_UC16"><path d="M800.91,1374.24 C769.84,1378.95 737.17,1389.52 714,1411.6 C669.9,1453.61 686.84,1483.69 679,1544.1 C661.57,1678.31 623.39,1746.06 714,1846.6 C732.95,1867.62 754.4211,1877.7327 782.0411,1883.6027 " fill="none" id="UC12-to-UC16" style="stroke:#181818;stroke-width:1.0;stroke-dasharray:7.0,7.0;"/><polygon fill="#181818" points="787.91,1884.85,779.9382,1879.0664,783.0192,1883.8106,778.2751,1886.8917,787.91,1884.85" style="stroke:#181818;stroke-width:1.0;"/><text fill="#000000" font-family="sans-serif" font-size="13" lengthAdjust="spacing" textLength="61" x="644" y="1557.1669">&#171;include&#187;</text></g><!--link UC3 to UC18--><g id="link_UC3_UC18"><path d="M804.77,1438.85 C760.43,1436.8 709.67,1443.71 679,1478.1 C632.14,1530.64 670.04,1577.6 714,1632.6 C738.21,1662.89 769.6651,1681.7439 803.6951,1695.9839 " fill="none" id="UC3-to-UC18" style="stroke:#181818;stroke-width:1.0;stroke-dasharray:7.0,7.0;"/><polygon fill="#181818" points="809.23,1698.3,802.4717,1691.1359,804.6175,1696.3699,799.3835,1698.5158,809.23,1698.3" style="stroke:#181818;stroke-width:1.0;"/><text fill="#000000" font-family="sans-serif" font-size="13" lengthAdjust="spacing" textLength="61" x="644" y="1491.1669">&#171;include&#187;</text></g><!--link UC4 to UC18--><g id="link_UC4_UC18"><path d="M819.48,894.27 C782.27,895.82 739.59,904.95 714,934.6 C658.87,998.46 623.72,1629.36 679,1693.1 C698.14,1715.16 719.5279,1725.5307 748.2379,1730.7807 " fill="none" id="UC4-to-UC18" style="stroke:#181818;stroke-width:1.0;stroke-dasharray:7.0,7.0;"/><polygon fill="#181818" points="754.14,1731.86,746.0063,1726.3063,749.2216,1730.9606,744.5673,1734.1758,754.14,1731.86" style="stroke:#181818;stroke-width:1.0;"/><text fill="#000000" font-family="sans-serif" font-size="13" lengthAdjust="spacing" textLength="61" x="644" y="1689.1669">&#171;include&#187;</text></g><!--link UC5 to UC18--><g id="link_UC5_UC18"><path d="M791.3,1213.14 C762.59,1218.65 733.8,1229.89 714,1251.6 C632.3,1341.16 686.79,1401.12 679,1522.1 C675.69,1573.5 679.69,1594.16 714,1632.6 C740.29,1662.05 772.8352,1680.9297 807.0652,1695.4297 " fill="none" id="UC5-to-UC18" style="stroke:#181818;stroke-width:1.0;stroke-dasharray:7.0,7.0;"/><polygon fill="#181818" points="812.59,1697.77,805.8631,1690.5764,807.986,1695.8197,802.7427,1697.9427,812.59,1697.77" style="stroke:#181818;stroke-width:1.0;"/><text fill="#000000" font-family="sans-serif" font-size="13" lengthAdjust="spacing" textLength="61" x="644" y="1535.1669">&#171;include&#187;</text></g><!--link UC11 to UC18--><g id="link_UC11_UC18"><path d="M892.5,1616.32 C892.5,1636.06 892.5,1662.37 892.5,1686.37 " fill="none" id="UC11-to-UC18" style="stroke:#181818;stroke-width:1.0;stroke-dasharray:7.0,7.0;"/><polygon fill="#181818" points="892.5,1692.37,896.5,1683.37,892.5,1687.37,888.5,1683.37,892.5,1692.37" style="stroke:#181818;stroke-width:1.0;"/><text fill="#000000" font-family="sans-serif" font-size="13" lengthAdjust="spacing" textLength="61" x="850.5" y="1658.9169">&#171;include&#187;</text></g><!--link UC12 to UC18--><g id="link_UC12_UC18"><path d="M800.94,1373.73 C769.69,1378.35 736.89,1389 714,1411.6 C663.89,1461.05 686.83,1496.12 679,1566.1 C671.47,1633.38 737.3772,1673.2096 799.6372,1696.7296 " fill="none" id="UC12-to-UC18" style="stroke:#181818;stroke-width:1.0;stroke-dasharray:7.0,7.0;"/><polygon fill="#181818" points="805.25,1698.85,798.2443,1691.9276,800.5726,1697.083,795.4172,1699.4113,805.25,1698.85" style="stroke:#181818;stroke-width:1.0;"/><text fill="#000000" font-family="sans-serif" font-size="13" lengthAdjust="spacing" textLength="61" x="644" y="1579.1669">&#171;include&#187;</text></g><!--reverse link UC13 to UC1--><g id="link_UC13_UC1"><path d="M604.7567,2440.4225 C622.9167,2432.9525 622.93,2429.03 635,2413.6 C648.5,2396.34 639.78,2238.26 643,2216.6 C659.35,2106.66 691.53,2084.79 706,1974.6 C708.26,1957.38 703.51,738.43 714,724.6 C725.62,709.27 741.55,698.32 759.12,690.55 " fill="none" id="UC13-backto-UC1" style="stroke:#181818;stroke-width:1.0;"/><polygon fill="none" points="588.11,2447.27,607.0392,2445.9714,602.4742,2434.8736,588.11,2447.27" style="stroke:#181818;stroke-width:1.0;"/><text fill="#000000" font-family="sans-serif" font-size="13" lengthAdjust="spacing" textLength="60" x="644.5" y="1970.6669">&#171;extend&#187;</text></g><!--reverse link UC13 to UC2--><g id="link_UC13_UC2"><path d="M604.5558,2440.2746 C622.7358,2432.8246 622.8,2428.93 635,2413.6 C654.4,2389.21 626.6,2300.09 643,2273.6 C659.98,2246.18 689.73,2265.44 706,2237.6 C725.23,2204.69 694.03,898.06 714,865.6 C733.23,834.33 766.97,813.35 799.9,799.51 " fill="none" id="UC13-backto-UC2" style="stroke:#181818;stroke-width:1.0;"/><polygon fill="none" points="587.9,2447.1,606.8309,2445.8265,602.2806,2434.7227,587.9,2447.1" style="stroke:#181818;stroke-width:1.0;"/><text fill="#000000" font-family="sans-serif" font-size="13" lengthAdjust="spacing" textLength="60" x="644.5" y="2233.6669">&#171;extend&#187;</text></g><!--reverse link UC13 to UC3--><g id="link_UC13_UC3"><path d="M487.6381,2509.5158 C523.9681,2589.7058 620.95,2778.08 706,2693.6 C717.8,2681.87 703.63,1508.61 714,1495.6 C731.06,1474.17 756.86,1462.43 783.54,1456.27 " fill="none" id="UC13-backto-UC3" style="stroke:#181818;stroke-width:1.0;"/><polygon fill="none" points="480.21,2493.12,482.1728,2511.9919,493.1034,2507.0398,480.21,2493.12" style="stroke:#181818;stroke-width:1.0;"/><text fill="#000000" font-family="sans-serif" font-size="13" lengthAdjust="spacing" textLength="60" x="644.5" y="2689.6669">&#171;extend&#187;</text></g><!--reverse link UC13 to UC4--><g id="link_UC13_UC4"><path d="M603.6737,2440.1381 C622.0737,2432.7181 622.41,2428.81 635,2413.6 C646.82,2399.32 632.94,2346.16 643,2330.6 C660.51,2303.51 689.73,2322.44 706,2294.6 C715.53,2278.29 701.96,949.15 714,934.6 C739.12,904.22 782.27,895.21 819.73,893.93 " fill="none" id="UC13-backto-UC4" style="stroke:#181818;stroke-width:1.0;"/><polygon fill="none" points="586.98,2446.87,605.9177,2445.7026,601.4298,2434.5735,586.98,2446.87" style="stroke:#181818;stroke-width:1.0;"/><text fill="#000000" font-family="sans-serif" font-size="13" lengthAdjust="spacing" textLength="60" x="644.5" y="2290.6669">&#171;extend&#187;</text></g><!--reverse link UC13 to UC5--><g id="link_UC13_UC5"><path d="M521.7534,2502.0648 C574.6234,2537.4148 652.59,2575.67 706,2522.6 C718.52,2510.15 702.93,1265.35 714,1251.6 C732.72,1228.34 761.8,1216.8 791.05,1211.5 " fill="none" id="UC13-backto-UC5" style="stroke:#181818;stroke-width:1.0;"/><polygon fill="none" points="506.79,2492.06,518.4184,2507.0526,525.0883,2497.077,506.79,2492.06" style="stroke:#181818;stroke-width:1.0;"/><text fill="#000000" font-family="sans-serif" font-size="13" lengthAdjust="spacing" textLength="60" x="644.5" y="2518.6669">&#171;extend&#187;</text></g><!--reverse link UC13 to UC6--><g id="link_UC13_UC6"><path d="M609.1038,2445.7633 C659.0738,2437.4133 690.74,2427.57 706,2408.6 C728.96,2380.04 690.8,1117.95 714,1089.6 C737.12,1061.33 775.73,1051.09 811.05,1048.33 " fill="none" id="UC13-backto-UC6" style="stroke:#181818;stroke-width:1.0;"/><polygon fill="none" points="591.35,2448.73,610.0927,2451.6813,608.115,2439.8454,591.35,2448.73" style="stroke:#181818;stroke-width:1.0;"/><text fill="#000000" font-family="sans-serif" font-size="13" lengthAdjust="spacing" textLength="60" x="644.5" y="2404.6669">&#171;extend&#187;</text></g><!--reverse link UC13 to UC7--><g id="link_UC13_UC7"><path d="M599.232,2439.1583 C618.682,2431.9283 620.39,2427.99 635,2413.6 C643.61,2405.11 635.44,2397.03 643,2387.6 C663.15,2362.42 689.73,2379.44 706,2351.6 C715.36,2335.57 702.37,1030.05 714,1015.6 C732.52,992.58 761.18,981.05 790.12,975.67 " fill="none" id="UC13-backto-UC7" style="stroke:#181818;stroke-width:1.0;"/><polygon fill="none" points="582.36,2445.43,601.3226,2444.7823,597.1415,2433.5343,582.36,2445.43" style="stroke:#181818;stroke-width:1.0;"/><text fill="#000000" font-family="sans-serif" font-size="13" lengthAdjust="spacing" textLength="60" x="644.5" y="2347.6669">&#171;extend&#187;</text></g><!--reverse link UC13 to UC8--><g id="link_UC13_UC8"><path d="M558.7364,2492.7002 C611.9764,2505.9602 663.98,2507.35 706,2465.6 C718.75,2452.93 702.77,1185.63 714,1171.6 C731.98,1149.13 759.61,1137.45 787.75,1131.73 " fill="none" id="UC13-backto-UC8" style="stroke:#181818;stroke-width:1.0;"/><polygon fill="none" points="541.27,2488.35,557.2864,2498.5223,560.1865,2486.8781,541.27,2488.35" style="stroke:#181818;stroke-width:1.0;"/><text fill="#000000" font-family="sans-serif" font-size="13" lengthAdjust="spacing" textLength="60" x="644.5" y="2461.6669">&#171;extend&#187;</text></g><!--reverse link UC13 to UC9--><g id="link_UC13_UC9"><path d="M482.6398,2510.1902 C513.7998,2602.2702 608.04,2847.9 706,2750.6 C717.7,2738.98 703.45,1576.27 714,1563.6 C740.7,1531.52 787.56,1523.6 826.44,1523.39 " fill="none" id="UC13-backto-UC9" style="stroke:#181818;stroke-width:1.0;"/><polygon fill="none" points="476.87,2493.14,476.9564,2512.1135,488.3232,2508.2669,476.87,2493.14" style="stroke:#181818;stroke-width:1.0;"/><text fill="#000000" font-family="sans-serif" font-size="13" lengthAdjust="spacing" textLength="60" x="644.5" y="2746.6669">&#171;extend&#187;</text></g><!--reverse link UC13 to UC10--><g id="link_UC13_UC10"><path d="M504.641,2505.9344 C552.191,2558.3744 643.08,2642.11 706,2579.6 C718.26,2567.42 703.24,1349.11 714,1335.6 C730.96,1314.29 756.56,1302.56 783.08,1296.38 " fill="none" id="UC13-backto-UC10" style="stroke:#181818;stroke-width:1.0;"/><polygon fill="none" points="492.55,2492.6,500.1962,2509.9648,509.0858,2501.9041,492.55,2492.6" style="stroke:#181818;stroke-width:1.0;"/><text fill="#000000" font-family="sans-serif" font-size="13" lengthAdjust="spacing" textLength="60" x="644.5" y="2575.6669">&#171;extend&#187;</text></g><!--reverse link UC13 to UC11--><g id="link_UC13_UC11"><path d="M478.9653,2510.7874 C505.4153,2614.0774 594.32,2918.49 706,2807.6 C717.15,2796.53 705.37,1689.72 714,1676.6 C739.44,1637.93 788.76,1618.3 828.96,1608.41 " fill="none" id="UC13-backto-UC11" style="stroke:#181818;stroke-width:1.0;"/><polygon fill="none" points="474.5,2493.35,473.1528,2512.2758,484.7777,2509.2989,474.5,2493.35" style="stroke:#181818;stroke-width:1.0;"/><text fill="#000000" font-family="sans-serif" font-size="13" lengthAdjust="spacing" textLength="60" x="644.5" y="2803.6669">&#171;extend&#187;</text></g><!--reverse link UC13 to UC12--><g id="link_UC13_UC12"><path d="M494.5881,2508.3314 C536.4781,2575.4714 632.72,2709.39 706,2636.6 C718.07,2624.6 703.26,1424.79 714,1411.6 C735.09,1385.69 769.14,1374.72 801.81,1370.76 " fill="none" id="UC13-backto-UC12" style="stroke:#181818;stroke-width:1.0;"/><polygon fill="none" points="485.06,2493.06,489.4977,2511.5074,499.6786,2505.1553,485.06,2493.06" style="stroke:#181818;stroke-width:1.0;"/><text fill="#000000" font-family="sans-serif" font-size="13" lengthAdjust="spacing" textLength="60" x="644.5" y="2632.6669">&#171;extend&#187;</text></g><!--link citizen to UC19--><g id="link_citizen_UC19"><path d="M468.73,545.64 C478.34,747.26 528.85,1691.66 643,1957.6 C662.55,2003.14 671.43,2018.21 714,2043.6 C746.1,2062.74 780.7514,2070.946 815.0314,2074.996 " fill="none" id="citizen-to-UC19" style="stroke:#181818;stroke-width:1.0;"/><polygon fill="#181818" points="820.99,2075.7,812.5215,2070.6717,816.0245,2075.1134,811.5828,2078.6164,820.99,2075.7" style="stroke:#181818;stroke-width:1.0;"/></g><!--link citizen to UC20--><g id="link_citizen_UC20"><path d="M468.68,545.76 C477.69,738.85 524.3,1608.25 643,1846.6 C660.51,1881.76 683.95,1876.08 706,1908.6 C711.14,1916.18 707.59,1921.05 714,1927.6 C745.87,1960.12 787.7622,1978.5232 825.6522,1990.3432 " fill="none" id="citizen-to-UC20" style="stroke:#181818;stroke-width:1.0;"/><polygon fill="#181818" points="831.38,1992.13,823.9796,1985.6313,826.6069,1990.641,821.5971,1993.2683,831.38,1992.13" style="stroke:#181818;stroke-width:1.0;"/></g><!--link citizen to UC21--><g id="link_citizen_UC21"><path d="M467.82,545.83 C472.84,756.03 504.05,1771.61 643,2046.6 C669.1,2098.25 720.8267,2125.0871 773.9367,2140.8071 " fill="none" id="citizen-to-UC21" style="stroke:#181818;stroke-width:1.0;"/><polygon fill="#181818" points="779.69,2142.51,772.1954,2136.1201,774.8956,2141.0909,769.9248,2143.7912,779.69,2142.51" style="stroke:#181818;stroke-width:1.0;"/></g><!--link citizen to UC1--><g id="link_citizen_UC1"><path d="M487.51,507.24 C523.43,505.41 597.43,496.12 635,451.6 C650.08,433.72 625.25,414.82 643,399.6 C664.25,381.36 681.27,386.47 706,399.6 C803.18,451.16 856.7505,573.2501 878.5905,634.3501 " fill="none" id="citizen-to-UC1" style="stroke:#181818;stroke-width:1.0;"/><polygon fill="#181818" points="880.61,640,881.3473,630.1788,878.927,635.2917,873.8141,632.8715,880.61,640" style="stroke:#181818;stroke-width:1.0;"/></g><!--link citizen to UC2--><g id="link_citizen_UC2"><path d="M487.76,505.13 C535.09,500.81 651.14,497.81 706,563.6 C728.94,591.11 691.67,696.58 714,724.6 C726.67,740.49 738.4241,749.3146 757.2841,757.0046 " fill="none" id="citizen-to-UC2" style="stroke:#181818;stroke-width:1.0;"/><polygon fill="#181818" points="762.84,759.27,756.0164,752.168,758.2101,757.3822,752.9959,759.5759,762.84,759.27" style="stroke:#181818;stroke-width:1.0;"/></g><!--link citizen to UC3--><g id="link_citizen_UC3"><path d="M466.61,546 C467.2,664.01 482.72,1027.67 643,1264.6 C662.14,1292.88 689.05,1278.95 706,1308.6 C717.39,1328.53 699.07,1394.15 714,1411.6 C731.71,1432.28 751.7071,1442.4462 778.2271,1448.6362 " fill="none" id="citizen-to-UC3" style="stroke:#181818;stroke-width:1.0;"/><polygon fill="#181818" points="784.07,1450,776.2148,1444.059,779.2009,1448.8635,774.3964,1451.8496,784.07,1450" style="stroke:#181818;stroke-width:1.0;"/></g><!--link citizen to UC4--><g id="link_citizen_UC4"><path d="M487.8,515.82 C536.27,536.24 656.41,594.37 706,686.6 C720.34,713.26 696.65,797.78 714,822.6 C740.37,860.31 783.5267,878.2644 823.3667,888.1544 " fill="none" id="citizen-to-UC4" style="stroke:#181818;stroke-width:1.0;"/><polygon fill="#181818" points="829.19,889.6,821.4188,883.5495,824.3373,888.3953,819.4914,891.3138,829.19,889.6" style="stroke:#181818;stroke-width:1.0;"/></g><!--link citizen to UC5--><g id="link_citizen_UC5"><path d="M475.31,545.7 C495.4,633.23 551.78,853.79 643,1018.6 C664.58,1057.58 688.94,1055.43 706,1096.6 C712.42,1112.08 702.85,1159.08 714,1171.6 C733.65,1193.65 756.7234,1203.8209 785.5934,1209.2509 " fill="none" id="citizen-to-UC5" style="stroke:#181818;stroke-width:1.0;"/><polygon fill="#181818" points="791.49,1210.36,783.3845,1204.7653,786.5762,1209.4358,781.9057,1212.6275,791.49,1210.36" style="stroke:#181818;stroke-width:1.0;"/></g><!--link citizen to UC6--><g id="link_citizen_UC6"><path d="M487.54,543.18 C544.27,641.58 699.38,911.5 706,932.6 C711.55,950.27 701.63,1001.8 714,1015.6 C737.84,1042.2 769.4659,1051.9335 803.9259,1055.1435 " fill="none" id="citizen-to-UC6" style="stroke:#181818;stroke-width:1.0;"/><polygon fill="#181818" points="809.9,1055.7,801.3098,1050.8825,804.9216,1055.2363,800.5678,1058.848,809.9,1055.7" style="stroke:#181818;stroke-width:1.0;"/></g><!--link citizen to UC7--><g id="link_citizen_UC7"><path d="M487.59,525.09 C536.17,567.8 657.46,683.2 706,809.6 C715.98,835.58 695.99,913.38 714,934.6 C733.04,957.02 755.7811,967.4105 784.5211,973.0205 " fill="none" id="citizen-to-UC7" style="stroke:#181818;stroke-width:1.0;"/><polygon fill="#181818" points="790.41,974.17,782.343,968.5199,785.5026,973.2121,780.8104,976.3717,790.41,974.17" style="stroke:#181818;stroke-width:1.0;"/></g><!--link citizen to UC8--><g id="link_citizen_UC8"><path d="M478.51,545.75 C502.63,622.84 562.95,801.32 643,936.6 C665.7,974.94 688.91,973.44 706,1014.6 C712.34,1029.87 703.06,1076.19 714,1088.6 C732.96,1110.08 754.8312,1120.3823 782.7712,1126.3223 " fill="none" id="citizen-to-UC8" style="stroke:#181818;stroke-width:1.0;"/><polygon fill="#181818" points="788.64,1127.57,780.6686,1121.7859,783.7493,1126.5302,779.0049,1129.611,788.64,1127.57" style="stroke:#181818;stroke-width:1.0;"/></g><!--link citizen to UC9--><g id="link_citizen_UC9"><path d="M470.42,545.71 C484.86,700.46 544.72,1280.79 643,1432.6 C661.56,1461.26 684.53,1450.04 706,1476.6 C711.76,1483.72 706.88,1489.83 714,1495.6 C743.99,1519.88 780.1557,1528.2458 815.8557,1530.8358 " fill="none" id="citizen-to-UC9" style="stroke:#181818;stroke-width:1.0;"/><polygon fill="#181818" points="821.84,1531.27,813.153,1526.6293,816.8531,1530.9082,812.5742,1534.6083,821.84,1531.27" style="stroke:#181818;stroke-width:1.0;"/></g><!--link citizen to UC10--><g id="link_citizen_UC10"><path d="M472.98,545.62 C489.33,642.69 540.57,905.73 643,1100.6 C663.73,1140.04 688.88,1137.45 706,1178.6 C712.27,1193.66 703.19,1239.37 714,1251.6 C731.93,1271.88 751.8405,1281.9216 778.1905,1288.1416 " fill="none" id="citizen-to-UC10" style="stroke:#181818;stroke-width:1.0;"/><polygon fill="#181818" points="784.03,1289.52,776.1897,1283.5593,779.1637,1288.3713,774.3518,1291.3454,784.03,1289.52" style="stroke:#181818;stroke-width:1.0;"/></g><!--link citizen to UC11--><g id="link_citizen_UC11"><path d="M469.17,545.86 C481.29,753.29 543.75,1736.73 643,1823.6 C664.07,1842.04 685.67,1842.85 706,1823.6 C717.88,1812.35 704.69,1690.04 714,1676.6 C740.44,1638.4 784.1299,1620.1783 824.1599,1610.1483 " fill="none" id="citizen-to-UC11" style="stroke:#181818;stroke-width:1.0;"/><polygon fill="#181818" points="829.98,1608.69,820.2777,1606.9974,825.1299,1609.9052,822.2221,1614.7575,829.98,1608.69" style="stroke:#181818;stroke-width:1.0;"/></g><!--link citizen to UC12--><g id="link_citizen_UC12"><path d="M471.23,545.78 C484.16,651.92 529.4,957.42 643,1182.6 C663.07,1222.38 688.94,1219.43 706,1260.6 C712.42,1276.08 702.78,1323.14 714,1335.6 C735.83,1359.83 763.0749,1369.8705 794.8749,1374.2005 " fill="none" id="citizen-to-UC12" style="stroke:#181818;stroke-width:1.0;"/><polygon fill="#181818" points="800.82,1375.01,792.442,1369.8323,795.8657,1374.3354,791.3626,1377.7592,800.82,1375.01" style="stroke:#181818;stroke-width:1.0;"/></g><!--link UC19 to UC16--><g id="link_UC19_UC16"><path d="M820.47,2081.1 C784.46,2078.59 742.58,2069.43 714,2043.6 C668.82,2002.75 638.36,1956.46 679,1911.1 C711.16,1875.2 759.2847,1869.1396 804.9847,1872.3496 " fill="none" id="UC19-to-UC16" style="stroke:#181818;stroke-width:1.0;stroke-dasharray:7.0,7.0;"/><polygon fill="#181818" points="810.97,1872.77,802.2724,1868.1492,805.9823,1872.4197,801.7118,1876.1296,810.97,1872.77" style="stroke:#181818;stroke-width:1.0;"/><text fill="#000000" font-family="sans-serif" font-size="13" lengthAdjust="spacing" textLength="61" x="644" y="1924.1669">&#171;include&#187;</text></g><!--link UC20 to UC16--><g id="link_UC20_UC16"><path d="M892.5,1986.41 C892.5,1965.59 892.5,1939.14 892.5,1917.16 " fill="none" id="UC20-to-UC16" style="stroke:#181818;stroke-width:1.0;stroke-dasharray:7.0,7.0;"/><polygon fill="#181818" points="892.5,1911.16,888.5,1920.16,892.5,1916.16,896.5,1920.16,892.5,1911.16" style="stroke:#181818;stroke-width:1.0;"/><text fill="#000000" font-family="sans-serif" font-size="13" lengthAdjust="spacing" textLength="61" x="850.5" y="1953.4169">&#171;include&#187;</text></g><!--link UC21 to UC16--><g id="link_UC21_UC16"><path d="M768.02,2146.32 C747.78,2138.89 728.68,2128.12 714,2112.6 C658.15,2053.54 627.87,1996.28 679,1933.1 C705.23,1900.69 742.3624,1888.3526 783.0024,1884.1126 " fill="none" id="UC21-to-UC16" style="stroke:#181818;stroke-width:1.0;stroke-dasharray:7.0,7.0;"/><polygon fill="#181818" points="788.97,1883.49,779.6035,1880.4455,783.997,1884.0088,780.4337,1888.4023,788.97,1883.49" style="stroke:#181818;stroke-width:1.0;"/><text fill="#000000" font-family="sans-serif" font-size="13" lengthAdjust="spacing" textLength="61" x="644" y="1946.1669">&#171;include&#187;</text></g><!--link mentor to UC13--><g id="link_mentor_UC13"><path d="M150.25,2489.78 C179.36,2487.93 225.29,2484.86 265,2481.6 C288.55,2479.66 307.6658,2477.9761 331.8358,2475.7261 " fill="none" id="mentor-to-UC13" style="stroke:#181818;stroke-width:1.0;"/><polygon fill="#181818" points="337.81,2475.17,328.478,2472.0214,332.8315,2475.6334,329.2195,2479.987,337.81,2475.17" style="stroke:#181818;stroke-width:1.0;"/></g><!--link mentor to UC14--><g id="link_mentor_UC14"><path d="M150.07,2474.28 C180,2457.08 228.43,2430.97 273,2414.6 C303.57,2403.37 332.0436,2395.4887 363.1236,2388.3187 " fill="none" id="mentor-to-UC14" style="stroke:#181818;stroke-width:1.0;"/><polygon fill="#181818" points="368.97,2386.97,359.3012,2385.0955,364.098,2388.094,361.0995,2392.8907,368.97,2386.97" style="stroke:#181818;stroke-width:1.0;"/></g><!--link institution to UC15--><g id="link_institution_UC15"><path d="M221.42,2262.27 C253.45,2263.76 283.5165,2265.1509 317.8765,2266.7509 " fill="none" id="institution-to-UC15" style="stroke:#181818;stroke-width:1.0;"/><polygon fill="#181818" points="323.87,2267.03,315.0658,2262.6157,318.8754,2266.7974,314.6937,2270.607,323.87,2267.03" style="stroke:#181818;stroke-width:1.0;"/></g><!--link institution to UC14--><g id="link_institution_UC14"><path d="M202.86,2295.6 C225.3,2305.19 249.84,2314.93 273,2322.6 C304.73,2333.1 334.2948,2340.9157 365.9748,2348.2557 " fill="none" id="institution-to-UC14" style="stroke:#181818;stroke-width:1.0;"/><polygon fill="#181818" points="371.82,2349.61,363.9551,2343.6818,366.949,2348.4814,362.1494,2351.4754,371.82,2349.61" style="stroke:#181818;stroke-width:1.0;"/></g><!--link chairperson to UC13--><g id="link_chairperson_UC13"><path d="M164.7,2395.76 C192.18,2411.51 228.95,2430.22 264,2440.6 C285.04,2446.82 301.842,2450.46 324.212,2453.7 " fill="none" id="chairperson-to-UC13" style="stroke:#181818;stroke-width:1.0;"/><polygon fill="#181818" points="330.15,2454.56,321.8163,2449.3112,325.2016,2453.8433,320.6696,2457.2286,330.15,2454.56" style="stroke:#181818;stroke-width:1.0;"/></g><!--link chairperson to UC14--><g id="link_chairperson_UC14"><path d="M164.79,2365.9 C193.08,2364.29 230.7,2362.41 264,2361.6 C289.05,2360.98 309.8424,2361.0913 335.4424,2361.8113 " fill="none" id="chairperson-to-UC14" style="stroke:#181818;stroke-width:1.0;"/><polygon fill="#181818" points="341.44,2361.98,332.556,2357.7286,336.442,2361.8394,332.3311,2365.7254,341.44,2361.98" style="stroke:#181818;stroke-width:1.0;"/></g><!--link chairperson to UC16--><g id="link_chairperson_UC16"><path d="M164.58,2355.1 C187.64,2346.13 215.03,2332.32 234,2312.6 C263.38,2282.06 242.98,2255.5 273,2225.6 C310.29,2188.46 674.58,2075.81 706,2033.6 C722.85,2010.95 697.37,1993.4 714,1970.6 C738.65,1936.78 774.8907,1918.1756 811.8107,1906.0256 " fill="none" id="chairperson-to-UC16" style="stroke:#181818;stroke-width:1.0;"/><polygon fill="#181818" points="817.51,1904.15,807.7106,1903.1638,812.7606,1905.713,810.2114,1910.7629,817.51,1904.15" style="stroke:#181818;stroke-width:1.0;"/></g><!--link cooperativeHead to UC13--><g id="link_cooperativeHead_UC13"><path d="M168.51,2120.81 C191.83,2142.14 218.24,2170.62 234,2201.6 C277.45,2286.98 207.6,2343.59 273,2413.6 C289.79,2431.57 306.4707,2441.4751 330.0207,2449.0851 " fill="none" id="cooperativeHead-to-UC13" style="stroke:#181818;stroke-width:1.0;"/><polygon fill="#181818" points="335.73,2450.93,328.396,2444.3564,330.9722,2449.3926,325.9361,2451.9688,335.73,2450.93" style="stroke:#181818;stroke-width:1.0;"/></g><!--link cooperativeHead to UC15--><g id="link_cooperativeHead_UC15"><path d="M189.79,2120.79 C255.27,2157.15 347.1942,2208.1877 406.8342,2241.2977 " fill="none" id="cooperativeHead-to-UC15" style="stroke:#181818;stroke-width:1.0;"/><polygon fill="#181818" points="412.08,2244.21,406.1528,2236.3444,407.7085,2241.7831,402.2698,2243.3388,412.08,2244.21" style="stroke:#181818;stroke-width:1.0;"/></g><!--link cooperativeHead to UC3--><g id="link_cooperativeHead_UC3"><path d="M197.72,2044.43 C210.59,2036.22 223.24,2026.88 234,2016.6 C476.12,1785.14 348.82,1543.76 643,1383.6 C667.59,1370.21 683.65,1366.73 706,1383.6 C716.33,1391.39 704.64,1402.66 714,1411.6 C733.58,1430.3 754.0405,1439.8116 780.3905,1446.0316 " fill="none" id="cooperativeHead-to-UC3" style="stroke:#181818;stroke-width:1.0;"/><polygon fill="#181818" points="786.23,1447.41,778.3897,1441.4493,781.3637,1446.2613,776.5518,1449.2354,786.23,1447.41" style="stroke:#181818;stroke-width:1.0;"/></g><!--link cooperativeHead to UC4--><g id="link_cooperativeHead_UC4"><path d="M208.61,2044.56 C218.68,2036.72 227.61,2027.47 234,2016.6 C287.44,1925.67 197.66,192.4 273,118.6 C387.93,6 504.93,23.9 635,118.6 C718.06,179.07 689.19,237.24 706,338.6 C708.2,351.86 706.53,811.41 714,822.6 C739.47,860.72 782.4114,878.656 822.4014,888.426 " fill="none" id="cooperativeHead-to-UC4" style="stroke:#181818;stroke-width:1.0;"/><polygon fill="#181818" points="828.23,889.85,820.4365,883.8283,823.3729,888.6633,818.5378,891.5997,828.23,889.85" style="stroke:#181818;stroke-width:1.0;"/></g><!--link secretary to UC13--><g id="link_secretary_UC13"><path d="M153.07,2865.54 C175.92,2838.24 207.2,2800.44 234,2766.6 C312.18,2667.86 397.9858,2553.0492 438.8658,2497.9292 " fill="none" id="secretary-to-UC13" style="stroke:#181818;stroke-width:1.0;"/><polygon fill="#181818" points="442.44,2493.11,433.8659,2497.956,439.4615,2497.126,440.2915,2502.7217,442.44,2493.11" style="stroke:#181818;stroke-width:1.0;"/></g><!--link secretary to UC16--><g id="link_secretary_UC16"><path d="M154.75,2919.72 C255.04,2965.03 553.69,3080.64 706,2929.6 C724.92,2910.84 699.6,1993.01 714,1970.6 C736.33,1935.82 771.7376,1917.1853 808.7776,1905.2853 " fill="none" id="secretary-to-UC16" style="stroke:#181818;stroke-width:1.0;"/><polygon fill="#181818" points="814.49,1903.45,804.6979,1902.3946,809.7296,1904.9794,807.1449,1910.0112,814.49,1903.45" style="stroke:#181818;stroke-width:1.0;"/></g><!--link secretary to UC17--><g id="link_secretary_UC17"><path d="M154.57,2908.02 C267.32,2922.05 629.73,2960.18 706,2881.6 C726.02,2860.96 695.78,1868.83 714,1846.6 C736.85,1818.72 768.7808,1808.8797 803.7208,1805.9597 " fill="none" id="secretary-to-UC17" style="stroke:#181818;stroke-width:1.0;"/><polygon fill="#181818" points="809.7,1805.46,800.3981,1802.2234,804.7174,1805.8764,801.0644,1810.1956,809.7,1805.46" style="stroke:#181818;stroke-width:1.0;"/></g><!--link PRandIT to UC13--><g id="link_PRandIT_UC13"><path d="M181.42,3007.43 C199.95,2993.67 219.3,2976.95 234,2958.6 C356.92,2805.11 430.3921,2581.2948 454.6621,2499.0348 " fill="none" id="PRandIT-to-UC13" style="stroke:#181818;stroke-width:1.0;"/><polygon fill="#181818" points="456.36,2493.28,449.9767,2500.7802,454.9451,2498.0756,457.6497,2503.0441,456.36,2493.28" style="stroke:#181818;stroke-width:1.0;"/></g><!--link PRandIT to UC17--><g id="link_PRandIT_UC17"><path d="M221.05,3058.53 C356.01,3069.64 592.49,3065.35 706,2920.6 C724.41,2897.12 695.09,1869.67 714,1846.6 C736.84,1818.71 768.7807,1808.868 803.7207,1805.958 " fill="none" id="PRandIT-to-UC17" style="stroke:#181818;stroke-width:1.0;"/><polygon fill="#181818" points="809.7,1805.46,800.3991,1802.2208,804.7173,1805.875,801.063,1810.1932,809.7,1805.46" style="stroke:#181818;stroke-width:1.0;"/></g><!--link PRandIT to UC21--><g id="link_PRandIT_UC21"><path d="M212.86,3083.63 C339.05,3129.1 566.24,3185.74 706,3071.6 C846.64,2956.73 883.122,2345.4736 889.922,2198.8536 " fill="none" id="PRandIT-to-UC21" style="stroke:#181818;stroke-width:1.0;"/><polygon fill="#181818" points="890.2,2192.86,885.7873,2201.665,889.9684,2197.8546,893.7787,2202.0357,890.2,2192.86" style="stroke:#181818;stroke-width:1.0;"/></g><!--link fishery to UC13--><g id="link_fishery_UC13"><path d="M173.25,2673.78 C242.23,2623.85 357.3597,2540.5081 419.7897,2495.3181 " fill="none" id="fishery-to-UC13" style="stroke:#181818;stroke-width:1.0;"/><polygon fill="#181818" points="424.65,2491.8,415.0141,2493.837,420.5997,2494.7318,419.705,2500.3174,424.65,2491.8" style="stroke:#181818;stroke-width:1.0;"/></g><!--link fishery to UC9--><g id="link_fishery_UC9"><path d="M173.35,2734.04 C302.37,2787.69 630.62,2913.5 706,2838.6 C718.56,2826.11 702.67,1577.21 714,1563.6 C740.69,1531.51 781.5601,1523.6224 820.4301,1523.4124 " fill="none" id="fishery-to-UC9" style="stroke:#181818;stroke-width:1.0;"/><polygon fill="#181818" points="826.43,1523.38,817.4085,1519.4287,821.4301,1523.407,817.4517,1527.4286,826.43,1523.38" style="stroke:#181818;stroke-width:1.0;"/></g><!--link infrastructure to UC17--><g id="link_infrastructure_UC17"><path d="M540.8,290.65 C575.19,297.12 613.25,311.07 635,340.6 C643.47,352.09 642.04,840.35 643,854.6 C658.86,1090.84 689.54,1147.4 706,1383.6 C706.75,1394.35 707.14,1763.28 714,1771.6 C736.78,1799.18 768.2762,1809.2097 802.9262,1812.4597 " fill="none" id="infrastructure-to-UC17" style="stroke:#181818;stroke-width:1.0;"/><polygon fill="#181818" points="808.9,1813.02,800.3129,1808.197,803.9218,1812.5531,799.5658,1816.1621,808.9,1813.02" style="stroke:#181818;stroke-width:1.0;"/></g><!--link infrastructure to UC1--><g id="link_infrastructure_UC1"><path d="M540.64,284.98 C591.53,288.05 658.39,299.43 706,334.6 C812.18,413.02 863.1558,565.3475 881.7858,634.3375 " fill="none" id="infrastructure-to-UC1" style="stroke:#181818;stroke-width:1.0;"/><polygon fill="#181818" points="883.35,640.13,884.8654,630.3984,882.0465,635.3029,877.142,632.484,883.35,640.13" style="stroke:#181818;stroke-width:1.0;"/></g><!--link infrastructure to UC2--><g id="link_infrastructure_UC2"><path d="M540.73,297.79 C572.28,305.85 608,319.08 635,340.6 C682.87,378.74 688.74,399.87 706,458.6 C710.17,472.78 704.9,712.94 714,724.6 C726.42,740.49 737.9237,749.3013 756.5837,757.0013 " fill="none" id="infrastructure-to-UC2" style="stroke:#181818;stroke-width:1.0;"/><polygon fill="#181818" points="762.13,759.29,755.3363,752.1594,757.508,757.3828,752.2847,759.5545,762.13,759.29" style="stroke:#181818;stroke-width:1.0;"/></g><!--link infrastructure to UC7--><g id="link_infrastructure_UC7"><path d="M540.77,291.08 C574.93,297.68 612.8,311.6 635,340.6 C645.28,354.02 639.59,476.03 643,492.6 C659.31,571.93 690.6,584.08 706,663.6 C708.86,678.38 704.45,922.95 714,934.6 C732.75,957.47 755.5875,967.9692 784.5075,973.5192 " fill="none" id="infrastructure-to-UC7" style="stroke:#181818;stroke-width:1.0;"/><polygon fill="#181818" points="790.4,974.65,782.3152,969.0255,785.4896,973.7077,780.8074,976.8821,790.4,974.65" style="stroke:#181818;stroke-width:1.0;"/></g><!--link infrastructure to UC8--><g id="link_infrastructure_UC8"><path d="M540.69,290.73 C575.06,297.22 613.12,311.16 635,340.6 C645.97,355.36 639.68,653.5 643,671.6 C658.21,754.55 690.4,767.71 706,850.6 C708.45,863.6 705.62,1078.36 714,1088.6 C732.25,1110.89 754.0869,1121.4224 782.2169,1127.3024 " fill="none" id="infrastructure-to-UC8" style="stroke:#181818;stroke-width:1.0;"/><polygon fill="#181818" points="788.09,1128.53,780.0988,1122.7732,783.1958,1127.507,778.462,1130.6039,788.09,1128.53" style="stroke:#181818;stroke-width:1.0;"/></g><!--link agriculture to UC11--><g id="link_agriculture_UC11"><path d="M509.09,3169.31 C566.5,3113.96 666.69,3005.33 706,2888.6 C716.74,2856.69 695.5,1704.73 714,1676.6 C739.43,1637.92 782.9236,1619.723 823.1336,1609.833 " fill="none" id="agriculture-to-UC11" style="stroke:#181818;stroke-width:1.0;"/><polygon fill="#181818" points="828.96,1608.4,819.2651,1606.6653,824.1047,1609.5942,821.1758,1614.4338,828.96,1608.4" style="stroke:#181818;stroke-width:1.0;"/></g><!--link agriculture to UC22--><g id="link_agriculture_UC22"><path d="M555.79,3245.65 C698.67,3300.21 979.85,3379.03 1141,3233.6 C1276.28,3111.51 1317.1574,1724.0481 1323.0574,1492.1981 " fill="none" id="agriculture-to-UC22" style="stroke:#181818;stroke-width:1.0;"/><polygon fill="#181818" points="1323.21,1486.2,1318.9823,1495.0953,1323.0828,1491.1984,1326.9798,1495.2988,1323.21,1486.2" style="stroke:#181818;stroke-width:1.0;"/></g><!--link agriculture to UC25--><g id="link_agriculture_UC25"><path d="M585.18,3185.06 C627.78,3171.84 673.34,3151.06 706,3118.6 C1245.95,2581.77 1096.5,2221.69 1141,1461.6 C1141.55,1452.16 1142.98,1128.88 1149,1121.6 C1168.99,1097.38 1194.5124,1087.2228 1225.2724,1082.7528 " fill="none" id="agriculture-to-UC25" style="stroke:#181818;stroke-width:1.0;"/><polygon fill="#181818" points="1231.21,1081.89,1221.7283,1079.2259,1226.262,1082.609,1222.8788,1087.1427,1231.21,1081.89" style="stroke:#181818;stroke-width:1.0;"/></g><!--link agriculture to UC27--><g id="link_agriculture_UC27"><path d="M585.07,3217.98 C758.09,3230.3 1067.92,3240.36 1141,3162.6 C1157.73,3144.79 1134.14,1422.99 1149,1403.6 C1161.65,1387.09 1173.8056,1378.0786 1193.2056,1370.5586 " fill="none" id="agriculture-to-UC27" style="stroke:#181818;stroke-width:1.0;"/><polygon fill="#181818" points="1198.8,1368.39,1188.9627,1367.9132,1194.138,1370.1971,1191.8541,1375.3724,1198.8,1368.39" style="stroke:#181818;stroke-width:1.0;"/></g><!--link livestock to UC4--><g id="link_livestock_UC4"><path d="M524.56,179.66 C560.94,185.84 606.32,199.48 635,229.6 C717.31,316.03 688.66,370.5 706,488.6 C708.7,506.96 703.63,807.2 714,822.6 C739.71,860.76 782.9008,878.7087 822.9308,888.4687 " fill="none" id="livestock-to-UC4" style="stroke:#181818;stroke-width:1.0;"/><polygon fill="#181818" points="828.76,889.89,820.9637,883.8719,823.9023,888.7056,819.0686,891.6443,828.76,889.89" style="stroke:#181818;stroke-width:1.0;"/></g><!--link livestock to UC6--><g id="link_livestock_UC6"><path d="M524.58,177.22 C562.44,182.27 609.52,195.57 635,229.6 C643.53,240.98 641.03,471.5 643,485.6 C658.88,599.07 690.27,622.1 706,735.6 C708.14,751.01 704.01,1003.66 714,1015.6 C737.24,1043.35 769.4306,1053.143 804.4406,1056.053 " fill="none" id="livestock-to-UC6" style="stroke:#181818;stroke-width:1.0;"/><polygon fill="#181818" points="810.42,1056.55,801.7823,1051.8182,805.4372,1056.1358,801.1196,1059.7908,810.42,1056.55" style="stroke:#181818;stroke-width:1.0;"/></g><!--link livestock to UC28--><g id="link_livestock_UC28"><path d="M524.73,187.11 C558.36,195.92 600.75,209.73 635,229.6 C860.92,360.64 916.07,413.33 1071,623.6 C1114.88,683.15 1123.44,702.74 1141,774.6 C1145.67,793.72 1136.67,936.25 1149,951.6 C1162.99,969.01 1177.0116,978.4128 1198.1616,985.7528 " fill="none" id="livestock-to-UC28" style="stroke:#181818;stroke-width:1.0;"/><polygon fill="#181818" points="1203.83,987.72,1196.6389,980.9903,1199.1064,986.0807,1194.016,988.5481,1203.83,987.72" style="stroke:#181818;stroke-width:1.0;"/></g><!--reverse link UC3 to UC22--><g id="link_UC3_UC22"><path d="M1020.13,1453.6 C1072.44,1453.6 1117.99,1453.6 1174.75,1453.6 " fill="none" id="UC3-backto-UC22" style="stroke:#181818;stroke-width:1.0;"/><polygon fill="none" points="1002.13,1453.6,1020.13,1459.6,1020.13,1447.6,1002.13,1453.6" style="stroke:#181818;stroke-width:1.0;"/><text fill="#000000" font-family="sans-serif" font-size="13" lengthAdjust="spacing" textLength="60" x="1080" y="1449.6669">&#171;extend&#187;</text></g><!--reverse link UC4 to UC23--><g id="link_UC4_UC23"><path d="M944.629,876.6604 C993.349,855.0104 1068.66,822.72 1149,794.6 C1174.69,785.6 1202.86,776.9 1228.96,769.3 " fill="none" id="UC4-backto-UC23" style="stroke:#181818;stroke-width:1.0;"/><polygon fill="none" points="928.18,883.97,947.0655,882.1435,942.1925,871.1774,928.18,883.97" style="stroke:#181818;stroke-width:1.0;"/><text fill="#000000" font-family="sans-serif" font-size="13" lengthAdjust="spacing" textLength="60" x="1080" y="795.6669">&#171;extend&#187;</text></g><!--reverse link UC4 to UC24--><g id="link_UC4_UC24"><path d="M986.9741,901.9802 C1056.1841,903.7502 1141.36,905.93 1218.67,907.9 " fill="none" id="UC4-backto-UC24" style="stroke:#181818;stroke-width:1.0;"/><polygon fill="none" points="968.98,901.52,986.8207,907.9782,987.1275,895.9821,968.98,901.52" style="stroke:#181818;stroke-width:1.0;"/><text fill="#000000" font-family="sans-serif" font-size="13" lengthAdjust="spacing" textLength="60" x="1080" y="900.6669">&#171;extend&#187;</text></g><!--reverse link UC4 to UC25--><g id="link_UC4_UC25"><path d="M983.8725,895.3835 C1020.8125,897.0135 1045.28,905.35 1071,934.6 C1088.65,954.66 1060.59,1035.22 1079,1054.6 C1122.51,1100.4 1197.22,1103.05 1252.73,1097.07 " fill="none" id="UC4-backto-UC25" style="stroke:#181818;stroke-width:1.0;"/><polygon fill="none" points="965.89,894.59,983.608,901.3777,984.137,889.3893,965.89,894.59" style="stroke:#181818;stroke-width:1.0;"/><text fill="#000000" font-family="sans-serif" font-size="13" lengthAdjust="spacing" textLength="60" x="1080" y="1050.6669">&#171;extend&#187;</text></g><!--reverse link UC4 to UC26--><g id="link_UC4_UC26"><path d="M973.8796,886.9018 C1053.3996,874.3418 1172.41,855.54 1254.91,842.51 " fill="none" id="UC4-backto-UC26" style="stroke:#181818;stroke-width:1.0;"/><polygon fill="none" points="956.1,889.71,974.8157,892.8283,972.9435,880.9752,956.1,889.71" style="stroke:#181818;stroke-width:1.0;"/><text fill="#000000" font-family="sans-serif" font-size="13" lengthAdjust="spacing" textLength="60" x="1080" y="856.6669">&#171;extend&#187;</text></g><!--reverse link UC5 to UC27--><g id="link_UC5_UC27"><path d="M1004.6255,1223.3249 C1033.3155,1229.1049 1046.19,1235.28 1071,1251.6 C1076.05,1254.92 1074.6,1258.45 1079,1262.6 C1105.89,1287.99 1115.22,1292.53 1149,1307.6 C1173.31,1318.44 1200.64,1327.35 1226.35,1334.43 " fill="none" id="UC5-backto-UC27" style="stroke:#181818;stroke-width:1.0;"/><polygon fill="none" points="986.98,1219.77,1003.4405,1229.2067,1005.8104,1217.4431,986.98,1219.77" style="stroke:#181818;stroke-width:1.0;"/><text fill="#000000" font-family="sans-serif" font-size="13" lengthAdjust="spacing" textLength="60" x="1080" y="1258.6669">&#171;extend&#187;</text></g><!--reverse link UC6 to UC28--><g id="link_UC6_UC28"><path d="M983.8999,1041.2589 C1050.9999,1032.8389 1133.9,1022.44 1211.44,1012.71 " fill="none" id="UC6-backto-UC28" style="stroke:#181818;stroke-width:1.0;"/><polygon fill="none" points="966.04,1043.5,984.647,1047.2122,983.1529,1035.3055,966.04,1043.5" style="stroke:#181818;stroke-width:1.0;"/><text fill="#000000" font-family="sans-serif" font-size="13" lengthAdjust="spacing" textLength="60" x="1080" y="1017.6669">&#171;extend&#187;</text></g><!--reverse link UC7 to UC29--><g id="link_UC7_UC29"><path d="M1012.4766,980.0867 C1041.0466,985.5767 1051.85,993.52 1071,1015.6 C1085.61,1032.44 1064.26,1098.87 1079,1115.6 C1110.03,1150.79 1158.49,1165.36 1204.14,1170.45 " fill="none" id="UC7-backto-UC29" style="stroke:#181818;stroke-width:1.0;"/><polygon fill="none" points="994.8,976.69,1011.3444,985.9789,1013.6088,974.1945,994.8,976.69" style="stroke:#181818;stroke-width:1.0;"/><text fill="#000000" font-family="sans-serif" font-size="13" lengthAdjust="spacing" textLength="60" x="1080" y="1111.6669">&#171;extend&#187;</text></g><!--reverse link UC8 to UC30--><g id="link_UC8_UC30"><path d="M1012.7531,1138.9693 C1040.3331,1144.8593 1050.57,1152.01 1071,1171.6 C1080.65,1180.85 1069.39,1191.3 1079,1200.6 C1108.32,1228.97 1148.79,1244.5 1188.39,1252.78 " fill="none" id="UC8-backto-UC30" style="stroke:#181818;stroke-width:1.0;"/><polygon fill="none" points="995.15,1135.21,1011.4999,1144.837,1014.0062,1133.1016,995.15,1135.21" style="stroke:#181818;stroke-width:1.0;"/><text fill="#000000" font-family="sans-serif" font-size="13" lengthAdjust="spacing" textLength="60" x="1080" y="1196.6669">&#171;extend&#187;</text></g><!--SRC=[bLTDR-Cs4BthLn0vz9OsaYnRBe80JfqYXfCwY1CKFKvaHkPAeWIAN3JRxd_lYFh-e3RDmSZCuniEXyD7CQRlaiYK21QU9JanGGF9Kcxb4UCP24X81a448JtAZvYI0hOi26GgoCKJvM6eE907-00E_890JbHEHNS0ZTCOo5EQun198pq6JWdZxQ3aZN7GG48v-chabRElLEHC8l8BUS1n40AvnS7LN8pdaacb4wuuVu88orW1a-mRvKssUoeLaDT49ILy1YOo3Dzoon7x5BsGC_B8f4123cSWMvfNKLCDIypidiAffXvf9AW4mN8zAgU1DZzg_5ubwFw9lD28ft4QChBZxwb09zE4fsVWfzrBcuduWaMZWaLDOTzPVgPjn2Dk3fR-19myORhQgehoZhOKAf1Aq5542PmXH_DKfY9om89nLcrCA5YWuYcYf893LEKIu_9pcGQHPLNjWVjuEFwr-UFbRh-zEvBT_lvXSoJFcyVD_lM2_6CH_2kQ1tY8RNJnI7DMXdg4uCmupQinnH-sK02v7bKs64vBD8CK7QKofEsnKp2M3l7wc_rPBiCT6d0TpVskVuTfFedqf2Bi1Lskkfkh8cXGdvQft1lgNP8n7f8Z_aHfCwixPjnMDSPz-L3dQjnYUcNbgTeAbf6TmBCBHHeLnPi9lOVYiDL9BEU2x-cRucIh18Cwykh7upT5rKKrtf_9P1SrOTVJOJ7e6Tj3dm3oZ5at1Fjgfjwwg-k14utHsKPoX2I3kjJsR2TqM6KpQDM2keavde52lQRRE47j0wM9ZpI6B1L5M-vfo42sgt8dgSKq5JDvGqN0gMFSxdFBc-wH3tfYklkFgk2HBOgqZdFFtjerUpDhtXGopL1AQfLg7QQknta3N9B4sIIG-eAe9vljjzznbhZG-dhqPBV54Ab8zqDEPNiiyMhezeS_jweeHxNPO0qrNUjR3acPv4kQnWOfmgL_mUkm8DRJ61gto2OkbBixsBcQMyxX3Q_DhyMj0qMZz9D2iZspe4CcMO8JvlKsQGVxPjoaBe7yGASSP-PmbbnomFzn3RTAA0pGLI_7dTlnKfQtBCIxXDQQuSmgtZvDihGxsfiT3NdGgfsp_1zQIawqQ2YoIrzg-gpwwKE5r_k4oZh-PsMsTpITzMVLLeiHZLkTTg-gTlbkMSNt6BcylD6tPCTmkeRRDHPTm-iQowwnwXf-rrZt9htgMRqSK74j_IrOssxVNFRDbMNXB_cvnCYlvFgQyI1M9tfpWuXZH5mZiZ0YdX5P6f6L4V6DoDg8s5Tco5m5srI6JXryOnryOnrySnA-EGb_d8Jjakj_BoyBL8FqRqdvgQGra6E6N3EqC4EU6LgQePKPyitGsWpXdfgncNhOWu9OrUkcFXhhWGDlcu737bA60mQsEx0N0ziRsCk1lHhO_i0UPcmFCxP76JkwVSm7nZ4V6CTqOApooTaAKDzUM9qtPktqffmBt9FsITd6ct0kffnBvFVVbfqOqu1d04m4JB5vcBR1Hwxbs8NAMxrGMzx0iHeuiE6iwidQSlgEjMNr7wjjh6d_jDkPTXk2-7ZbjA_SjjV6JlpqcN1wKqwiJ_CaReezz2n77lmoqAfSYzv8zHODv9gXXHdopD18zRm66gdUie56ghTge97g-OrY3qJlFm00]--></g></svg>